<svg width="170" height="32" viewBox="0 0 170 32" fill="none" xmlns="http://www.w3.org/2000/svg">
<rect width="170" height="32" rx="3" fill="#4B92D3"/>
<path d="M24.3906 11.032H30.7186V12.222H25.8186V15.344H30.4386V16.534H25.8186V21H24.3906V11.032ZM41.1679 21H39.6419L38.3959 17.682C38.2652 17.3273 38.0739 17.0847 37.8219 16.954C37.5699 16.814 37.2246 16.744 36.7859 16.744H34.6019V21H33.1739V11.032H37.2759C38.3679 11.032 39.2032 11.2747 39.7819 11.76C40.3699 12.2453 40.6639 12.9407 40.6639 13.846C40.6639 14.4993 40.4912 15.0547 40.1459 15.512C39.8006 15.9693 39.3106 16.2913 38.6759 16.478C39.2546 16.5807 39.6746 16.9913 39.9359 17.71L41.1679 21ZM37.1079 15.582C37.8359 15.582 38.3772 15.442 38.7319 15.162C39.0866 14.8727 39.2639 14.4433 39.2639 13.874C39.2639 13.3047 39.0866 12.8847 38.7319 12.614C38.3866 12.334 37.8452 12.194 37.1079 12.194H34.6019V15.582H37.1079ZM47.9913 21.112C47.0486 21.112 46.2273 20.9067 45.5273 20.496C44.8366 20.076 44.2999 19.4833 43.9173 18.718C43.5439 17.9527 43.3573 17.052 43.3573 16.016C43.3573 14.9707 43.5439 14.0653 43.9173 13.3C44.2906 12.5347 44.8273 11.9467 45.5273 11.536C46.2273 11.1253 47.0486 10.92 47.9913 10.92C48.9433 10.92 49.7646 11.1253 50.4553 11.536C51.1553 11.9467 51.6919 12.5347 52.0653 13.3C52.4386 14.0653 52.6253 14.966 52.6253 16.002C52.6253 17.0473 52.4386 17.9527 52.0653 18.718C51.6919 19.4833 51.1553 20.076 50.4553 20.496C49.7553 20.9067 48.9339 21.112 47.9913 21.112ZM47.9913 19.936C48.9899 19.936 49.7646 19.5953 50.3153 18.914C50.8753 18.2327 51.1553 17.262 51.1553 16.002C51.1553 14.7513 50.8753 13.79 50.3153 13.118C49.7646 12.4367 48.9899 12.096 47.9913 12.096C46.9926 12.096 46.2179 12.4367 45.6673 13.118C45.1166 13.79 44.8413 14.7513 44.8413 16.002C44.8413 17.262 45.1166 18.2327 45.6673 18.914C46.2273 19.5953 47.0019 19.936 47.9913 19.936ZM65.0054 11.032V21H63.7034V14.154L60.7494 21H59.7554L56.7594 14.196L56.7734 21H55.4714V11.032H56.6334L60.2594 19.264L63.8434 11.032H65.0054ZM75.1307 12.236H71.7567V11.032H79.9607V12.236H76.5867V21H75.1307V12.236ZM90.5916 11.032V21H89.1496V16.534H83.5636V21H82.1356V11.032H83.5636V15.344H89.1496V11.032H90.5916ZM93.7491 11.032H100.217V12.208H95.1771V15.344H99.9371V16.52H95.1771V19.824H100.217V21H93.7491V11.032ZM113.299 15.862C113.878 16.0207 114.326 16.31 114.643 16.73C114.96 17.15 115.119 17.668 115.119 18.284C115.119 19.1427 114.82 19.81 114.223 20.286C113.635 20.762 112.809 21 111.745 21H107.433V11.032H111.605C112.632 11.032 113.43 11.2607 113.999 11.718C114.578 12.1753 114.867 12.8147 114.867 13.636C114.867 14.168 114.727 14.63 114.447 15.022C114.176 15.4047 113.794 15.6847 113.299 15.862ZM108.861 15.358H111.381C112.772 15.358 113.467 14.8213 113.467 13.748C113.467 12.712 112.772 12.194 111.381 12.194H108.861V15.358ZM111.605 19.838C112.333 19.838 112.865 19.7073 113.201 19.446C113.537 19.1753 113.705 18.76 113.705 18.2C113.705 17.6307 113.532 17.2107 113.187 16.94C112.851 16.66 112.324 16.52 111.605 16.52H108.861V19.838H111.605ZM117.857 11.032H119.299V19.796H124.143V21H117.857V11.032ZM130.172 21.112C129.23 21.112 128.408 20.9067 127.708 20.496C127.018 20.076 126.481 19.4833 126.098 18.718C125.725 17.9527 125.538 17.052 125.538 16.016C125.538 14.9707 125.725 14.0653 126.098 13.3C126.472 12.5347 127.008 11.9467 127.708 11.536C128.408 11.1253 129.23 10.92 130.172 10.92C131.124 10.92 131.946 11.1253 132.636 11.536C133.336 11.9467 133.873 12.5347 134.246 13.3C134.62 14.0653 134.806 14.966 134.806 16.002C134.806 17.0473 134.62 17.9527 134.246 18.718C133.873 19.4833 133.336 20.076 132.636 20.496C131.936 20.9067 131.115 21.112 130.172 21.112ZM130.172 19.936C131.171 19.936 131.946 19.5953 132.496 18.914C133.056 18.2327 133.336 17.262 133.336 16.002C133.336 14.7513 133.056 13.79 132.496 13.118C131.946 12.4367 131.171 12.096 130.172 12.096C129.174 12.096 128.399 12.4367 127.848 13.118C127.298 13.79 127.022 14.7513 127.022 16.002C127.022 17.262 127.298 18.2327 127.848 18.914C128.408 19.5953 129.183 19.936 130.172 19.936ZM145.717 15.708V20.412C145.297 20.6267 144.765 20.7993 144.121 20.93C143.486 21.0513 142.837 21.112 142.175 21.112C141.167 21.112 140.294 20.9113 139.557 20.51C138.819 20.0993 138.255 19.5113 137.863 18.746C137.48 17.9807 137.289 17.066 137.289 16.002C137.289 14.9567 137.48 14.0513 137.863 13.286C138.255 12.5207 138.81 11.9373 139.529 11.536C140.257 11.1253 141.111 10.92 142.091 10.92C142.791 10.92 143.435 11.0273 144.023 11.242C144.62 11.4473 145.129 11.746 145.549 12.138L145.031 13.216C144.555 12.824 144.088 12.544 143.631 12.376C143.173 12.208 142.665 12.124 142.105 12.124C141.022 12.124 140.196 12.4553 139.627 13.118C139.067 13.7807 138.787 14.742 138.787 16.002C138.787 17.2993 139.076 18.284 139.655 18.956C140.233 19.6187 141.087 19.95 142.217 19.95C142.973 19.95 143.701 19.838 144.401 19.614V16.814H142.077V15.708H145.717Z" fill="white"/>
</svg>
