<svg width="170" height="32" viewBox="0 0 170 32" fill="none" xmlns="http://www.w3.org/2000/svg">
<rect width="170" height="32" rx="3" fill="#4B92D3"/>
<path d="M30.6963 11.032H37.0243V12.222H32.1243V15.344H36.7443V16.534H32.1243V21H30.6963V11.032ZM47.4737 21H45.9477L44.7017 17.682C44.571 17.3273 44.3797 17.0847 44.1277 16.954C43.8757 16.814 43.5303 16.744 43.0917 16.744H40.9077V21H39.4797V11.032H43.5817C44.6737 11.032 45.509 11.2747 46.0877 11.76C46.6757 12.2453 46.9697 12.9407 46.9697 13.846C46.9697 14.4993 46.797 15.0547 46.4517 15.512C46.1063 15.9693 45.6163 16.2913 44.9817 16.478C45.5603 16.5807 45.9803 16.9913 46.2417 17.71L47.4737 21ZM43.4137 15.582C44.1417 15.582 44.683 15.442 45.0377 15.162C45.3923 14.8727 45.5697 14.4433 45.5697 13.874C45.5697 13.3047 45.3923 12.8847 45.0377 12.614C44.6923 12.334 44.151 12.194 43.4137 12.194H40.9077V15.582H43.4137ZM54.297 21.112C53.3544 21.112 52.533 20.9067 51.833 20.496C51.1424 20.076 50.6057 19.4833 50.223 18.718C49.8497 17.9527 49.663 17.052 49.663 16.016C49.663 14.9707 49.8497 14.0653 50.223 13.3C50.5964 12.5347 51.133 11.9467 51.833 11.536C52.533 11.1253 53.3544 10.92 54.297 10.92C55.249 10.92 56.0704 11.1253 56.761 11.536C57.461 11.9467 57.9977 12.5347 58.371 13.3C58.7444 14.0653 58.931 14.966 58.931 16.002C58.931 17.0473 58.7444 17.9527 58.371 18.718C57.9977 19.4833 57.461 20.076 56.761 20.496C56.061 20.9067 55.2397 21.112 54.297 21.112ZM54.297 19.936C55.2957 19.936 56.0704 19.5953 56.621 18.914C57.181 18.2327 57.461 17.262 57.461 16.002C57.461 14.7513 57.181 13.79 56.621 13.118C56.0704 12.4367 55.2957 12.096 54.297 12.096C53.2984 12.096 52.5237 12.4367 51.973 13.118C51.4224 13.79 51.147 14.7513 51.147 16.002C51.147 17.262 51.4224 18.2327 51.973 18.914C52.533 19.5953 53.3077 19.936 54.297 19.936ZM71.3112 11.032V21H70.0092V14.154L67.0552 21H66.0612L63.0652 14.196L63.0792 21H61.7772V11.032H62.9392L66.5652 19.264L70.1492 11.032H71.3112ZM87.0505 21H85.5245L84.2785 17.682C84.1478 17.3273 83.9565 17.0847 83.7045 16.954C83.4525 16.814 83.1071 16.744 82.6685 16.744H80.4845V21H79.0565V11.032H83.1585C84.2505 11.032 85.0858 11.2747 85.6645 11.76C86.2525 12.2453 86.5465 12.9407 86.5465 13.846C86.5465 14.4993 86.3738 15.0547 86.0285 15.512C85.6831 15.9693 85.1931 16.2913 84.5585 16.478C85.1371 16.5807 85.5571 16.9913 85.8185 17.71L87.0505 21ZM82.9905 15.582C83.7185 15.582 84.2598 15.442 84.6145 15.162C84.9691 14.8727 85.1465 14.4433 85.1465 13.874C85.1465 13.3047 84.9691 12.8847 84.6145 12.614C84.2691 12.334 83.7278 12.194 82.9905 12.194H80.4845V15.582H82.9905ZM89.6582 11.032H96.1262V12.208H91.0862V15.344H95.8462V16.52H91.0862V19.824H96.1262V21H89.6582V11.032ZM103.111 21.112C102.149 21.112 101.309 20.9067 100.591 20.496C99.8813 20.076 99.3353 19.4833 98.9526 18.718C98.57 17.9527 98.3786 17.0473 98.3786 16.002C98.3786 14.966 98.57 14.0653 98.9526 13.3C99.3353 12.5347 99.8813 11.9467 100.591 11.536C101.309 11.1253 102.149 10.92 103.111 10.92C103.792 10.92 104.422 11.0273 105.001 11.242C105.589 11.4473 106.083 11.7507 106.485 12.152L105.981 13.216C105.514 12.8333 105.052 12.558 104.595 12.39C104.147 12.2127 103.657 12.124 103.125 12.124C102.089 12.124 101.286 12.46 100.717 13.132C100.157 13.804 99.8766 14.7607 99.8766 16.002C99.8766 17.2527 100.157 18.2187 100.717 18.9C101.286 19.572 102.089 19.908 103.125 19.908C103.657 19.908 104.147 19.824 104.595 19.656C105.052 19.4787 105.514 19.1987 105.981 18.816L106.485 19.88C106.083 20.2813 105.589 20.5893 105.001 20.804C104.422 21.0093 103.792 21.112 103.111 21.112ZM109.139 11.032H110.581V21H109.139V11.032ZM113.739 11.032H117.883C118.928 11.032 119.74 11.2887 120.319 11.802C120.907 12.306 121.201 12.9967 121.201 13.874C121.201 14.7513 120.902 15.4467 120.305 15.96C119.717 16.464 118.909 16.716 117.883 16.716H115.181V21H113.739V11.032ZM117.715 15.568C118.405 15.568 118.923 15.4233 119.269 15.134C119.623 14.8447 119.801 14.4247 119.801 13.874C119.801 13.3327 119.623 12.9173 119.269 12.628C118.923 12.3387 118.405 12.194 117.715 12.194H115.181V15.568H117.715ZM123.794 11.032H130.262V12.208H125.222V15.344H129.982V16.52H125.222V19.824H130.262V21H123.794V11.032ZM136.03 21.112C135.256 21.112 134.546 21.0093 133.902 20.804C133.268 20.5987 132.717 20.2907 132.25 19.88L132.768 18.816C133.254 19.208 133.758 19.4927 134.28 19.67C134.803 19.8473 135.391 19.936 136.044 19.936C136.791 19.936 137.37 19.796 137.78 19.516C138.191 19.236 138.396 18.8393 138.396 18.326C138.396 17.8967 138.205 17.5747 137.822 17.36C137.44 17.136 136.833 16.9307 136.002 16.744C135.209 16.576 134.56 16.3847 134.056 16.17C133.552 15.946 133.156 15.652 132.866 15.288C132.577 14.9147 132.432 14.4387 132.432 13.86C132.432 13.2813 132.586 12.7727 132.894 12.334C133.202 11.886 133.636 11.5407 134.196 11.298C134.766 11.046 135.419 10.92 136.156 10.92C136.856 10.92 137.51 11.0273 138.116 11.242C138.732 11.4567 139.246 11.76 139.656 12.152L139.138 13.216C138.681 12.8333 138.21 12.5533 137.724 12.376C137.239 12.1893 136.721 12.096 136.17 12.096C135.452 12.096 134.887 12.25 134.476 12.558C134.066 12.8567 133.86 13.2673 133.86 13.79C133.86 14.238 134.038 14.5787 134.392 14.812C134.756 15.0453 135.335 15.2553 136.128 15.442C136.959 15.6287 137.631 15.8247 138.144 16.03C138.658 16.2353 139.068 16.5153 139.376 16.87C139.684 17.2247 139.838 17.682 139.838 18.242C139.838 18.8207 139.684 19.3247 139.376 19.754C139.068 20.1833 138.625 20.5193 138.046 20.762C137.477 20.9953 136.805 21.112 136.03 21.112Z" fill="white"/>
</svg>
