<svg width="160" height="21" viewBox="0 0 160 21" fill="none" xmlns="http://www.w3.org/2000/svg">
<path fill-rule="evenodd" clip-rule="evenodd" d="M29.1375 0.529371C28.9999 0.264071 28.7309 0.0708008 28.3927 0.0708008H7.45228C7.07219 0.0708008 6.77874 0.315801 6.66206 0.632271C6.63621 0.702901 6.61874 0.776401 6.61175 0.852001C6.60826 0.889801 6.60616 0.927601 6.60826 0.966101C6.60966 1.0046 6.61315 1.04317 6.61944 1.08167C6.6397 1.19717 6.68232 1.31127 6.75289 1.41977L8.48704 4.0601L19.9022 4.06787C21.0781 4.06787 21.7782 5.4139 21.1235 6.41567L15.5955 14.8821L17.2493 17.4008C17.2696 17.4329 17.2926 17.4623 17.3164 17.4904C17.3206 17.496 17.3262 17.5001 17.3304 17.5051C17.3506 17.5275 17.3702 17.5492 17.3918 17.568C17.3988 17.5744 17.4072 17.58 17.4142 17.5863C17.4338 17.6023 17.4533 17.6192 17.4736 17.6339C17.4813 17.6395 17.4897 17.6436 17.4973 17.6486C17.5183 17.6626 17.5393 17.6758 17.5616 17.6877C17.5707 17.692 17.5798 17.6954 17.5882 17.6997C17.6105 17.7101 17.6322 17.7214 17.6552 17.7298C17.665 17.7333 17.6755 17.7361 17.686 17.7395C17.7076 17.7466 17.7293 17.7536 17.751 17.7598C17.7628 17.7626 17.774 17.7633 17.7852 17.7654C17.8069 17.7697 17.8278 17.7752 17.8502 17.7773C17.8621 17.7788 17.8746 17.7788 17.8872 17.7801C17.9075 17.7816 17.9291 17.7836 17.9501 17.7836C17.9662 17.7836 17.9815 17.7816 17.9976 17.7801C18.0151 17.7788 18.0325 17.7788 18.05 17.7767C18.0661 17.7745 18.0828 17.7711 18.0996 17.7676C18.1164 17.7641 18.1325 17.7626 18.1485 17.7585C18.1667 17.7542 18.1842 17.7473 18.2023 17.7417C18.2163 17.7375 18.231 17.7339 18.2449 17.7283C18.2631 17.7214 18.2813 17.7123 18.2994 17.7039C18.312 17.6976 18.3253 17.6926 18.3379 17.6864C18.3595 17.6745 18.3805 17.6611 18.4007 17.6472C18.4084 17.6416 18.4175 17.6373 18.4259 17.6317C18.4483 17.6157 18.4699 17.5975 18.4916 17.5792C18.4972 17.5744 18.5028 17.5708 18.5076 17.5667C18.56 17.5183 18.6083 17.4631 18.6495 17.3986L29.0963 1.41697C29.1906 1.2727 29.236 1.11667 29.2402 0.963301C29.2423 0.812871 29.2067 0.661671 29.1375 0.529371" fill="white"/>
<path fill-rule="evenodd" clip-rule="evenodd" d="M18.3358 5.67065H0.710614C0.176815 5.67065 -0.152967 6.24395 0.0713124 6.71435C0.0908757 6.76685 0.11533 6.81802 0.148168 6.86695L8.88389 20.1522C8.91044 20.1928 8.94048 20.2278 8.97332 20.2614C9.26328 20.6611 9.85647 20.6521 10.1311 20.2327L18.9199 6.80332C19.2357 6.32025 18.8975 5.67065 18.3302 5.67065" fill="white"/>
<path fill-rule="evenodd" clip-rule="evenodd" d="M73.7322 17.4258C73.0125 17.4258 72.624 16.9309 72.624 16.1252V1.83252L68.5716 2.83989V16.0943C68.5716 18.9686 69.9453 20.9937 72.9007 20.9937C73.9711 20.9937 74.9626 20.6122 75.8045 20.0668L74.4162 17.2746C74.1842 17.3712 73.9516 17.4258 73.7322 17.4258Z" fill="white"/>
<path fill-rule="evenodd" clip-rule="evenodd" d="M80.789 17.4266C80.07 17.4266 79.6808 16.9317 79.6808 16.126V0.175781L75.6284 1.15368V16.0959C75.6284 18.9701 77.0021 20.9951 79.9575 20.9951C81.0279 20.9951 82.0193 20.6137 82.8613 20.0684L81.473 17.2761C81.2403 17.3726 81.0083 17.4266 80.789 17.4266Z" fill="white"/>
<path fill-rule="evenodd" clip-rule="evenodd" d="M147.363 5.7408H142.265L136.694 11.931V0.0708008H134.941C133.671 0.0708008 132.641 1.1019 132.641 2.3745V20.5808H136.694V17.006L138.423 14.8667L141.793 20.5815H146.491L140.919 12.2291L147.363 5.7408Z" fill="white"/>
<path fill-rule="evenodd" clip-rule="evenodd" d="M63.1044 13.1859C63.1044 15.589 61.5792 17.2011 59.2909 17.2011C57.0034 17.2011 55.4782 15.589 55.4782 13.1859C55.4782 13.1733 55.4789 13.1607 55.4789 13.1481C55.4789 13.1355 55.4782 13.1229 55.4782 13.1103C55.4782 10.7072 57.0034 9.09508 59.2909 9.09508C61.5792 9.09508 63.1044 10.7366 63.1044 13.1103C63.1044 13.1229 63.1037 13.1355 63.1037 13.1481C63.1037 13.1607 63.1044 13.1733 63.1044 13.1859ZM59.2909 5.4187C54.6859 5.4187 51.3419 8.6135 51.3419 13.1859C51.3419 17.7877 54.6859 20.9832 59.2909 20.9832C63.896 20.9832 67.2693 17.7884 67.2693 13.1859C67.2693 8.5834 63.896 5.4187 59.2909 5.4187Z" fill="white"/>
<path fill-rule="evenodd" clip-rule="evenodd" d="M44.1879 9.1008H39.4361V4.0608H44.1879C46.0248 4.0608 46.9869 4.9351 46.9869 6.5955C46.9869 8.22727 46.0248 9.1008 44.1879 9.1008ZM51.4767 6.57597C51.4767 2.73787 48.779 0.0708008 44.3521 0.0708008H37.4784C36.2061 0.0708008 35.1741 1.1019 35.1741 2.3738V20.5808H39.4361V13.0908H42.1799L46.9086 20.5808H52.0922L46.7556 12.8164C49.7467 11.996 51.4767 9.6524 51.4767 6.57597Z" fill="white"/>
<mask id="mask0_217_50" style="mask-type:alpha" maskUnits="userSpaceOnUse" x="105" y="5" width="17" height="16">
<path fill-rule="evenodd" clip-rule="evenodd" d="M105.688 5.4314H121.615V20.9952H105.688V5.4314Z" fill="white"/>
</mask>
<g mask="url(#mask0_217_50)">
<path fill-rule="evenodd" clip-rule="evenodd" d="M113.637 17.2138C111.349 17.2138 109.824 15.6017 109.824 13.1986C109.824 10.8886 111.233 9.31007 113.374 9.19107C113.461 9.18617 113.548 9.18267 113.637 9.18267C115.925 9.18267 117.45 10.8242 117.45 13.1979C117.45 15.2825 116.301 16.7714 114.503 17.1298C114.23 17.1851 113.94 17.2138 113.637 17.2138ZM113.637 5.4314C109.032 5.4314 105.688 8.6262 105.688 13.1986C105.688 17.8004 109.032 20.9952 113.637 20.9952C118.242 20.9952 121.615 17.8004 121.615 13.1986C121.615 8.5968 118.242 5.4314 113.637 5.4314Z" fill="white"/>
</g>
<mask id="mask1_217_50" style="mask-type:alpha" maskUnits="userSpaceOnUse" x="80" y="0" width="29" height="21">
<path fill-rule="evenodd" clip-rule="evenodd" d="M80.9664 0.0700684H108.07V20.58H80.9664V0.0700684Z" fill="white"/>
</mask>
<g mask="url(#mask1_217_50)">
<path fill-rule="evenodd" clip-rule="evenodd" d="M103.598 0.0707684L99.5957 14.7799L96.8463 5.81077H93.8084C92.8477 5.81077 92.0002 6.43937 91.7186 7.35917L89.443 14.8086L85.4108 0.0700684H80.9664L87.1834 20.5801H91.0688L94.5183 10.3664L97.6715 20.5801H101.855L108.07 0.0700684H103.598V0.0707684Z" fill="white"/>
</g>
<path fill-rule="evenodd" clip-rule="evenodd" d="M153.461 11.3113C151.735 10.9893 151.267 10.7835 151.267 10.1094C151.267 9.2303 152.14 8.73183 153.837 8.73183C155.563 8.73183 157.318 9.25963 158.459 10.08L158.529 9.91903L158.48 10.066L159.874 7.26253C159.874 7.26253 159.732 7.15123 159.498 6.99793L159.497 6.99933C157.995 6.00603 155.985 5.41943 153.866 5.41943C150.823 5.41943 147.113 6.53313 147.113 10.344C147.113 13.4218 149.453 14.154 153.081 14.7994C154.895 15.1221 155.977 15.3566 155.977 16.2065C155.977 17.4378 154.602 17.6722 153.432 17.6722C151.777 17.6722 149.769 17.2543 148.409 16.4724C148.355 16.4416 148.303 16.4109 148.251 16.3787L146.832 19.2479L147.213 19.4649L147.289 19.5084C147.306 19.5181 147.324 19.5279 147.34 19.537C148.985 20.4498 151.341 20.9839 153.226 20.9839C157.176 20.9839 159.985 19.1667 159.985 15.9131C159.985 12.6015 157.089 11.956 153.461 11.3113Z" fill="white"/>
<path fill-rule="evenodd" clip-rule="evenodd" d="M131.181 5.85692C131.181 5.85622 131.181 5.85552 131.181 5.85552C131.158 5.84432 131.135 5.83452 131.112 5.82402C131.102 5.81912 131.092 5.81492 131.082 5.81002C130.745 5.65679 130.424 5.55522 130.119 5.49852C130.118 5.49852 130.117 5.49782 130.115 5.49782C129.673 5.41662 129.265 5.42782 128.892 5.50342C126.997 5.88702 126.003 7.30942 126.003 7.30942L126.073 6.23492L126.07 5.81149H122.719V9.14552V20.5814H126.772V12.269C126.772 11.557 126.92 10.8927 127.175 10.3649C127.375 9.96662 127.608 9.68382 127.855 9.48649C128.028 9.35342 128.223 9.24772 128.43 9.16932C129.066 8.92649 129.801 8.93062 130.263 9.12102L131.644 6.41972L131.74 6.23212C131.74 6.23149 131.582 6.05432 131.181 5.85692Z" fill="white"/>
</svg>
