<svg width="159" height="19" viewBox="0 0 159 19" fill="none" xmlns="http://www.w3.org/2000/svg">
<path fill-rule="evenodd" clip-rule="evenodd" d="M115.691 18.1156H111.881V12.231C111.881 10.8279 111.855 9.02328 109.9 9.02328C107.918 9.02328 107.616 10.5523 107.616 12.1312V18.1156H103.809V6.01518H107.462V7.67009H107.515C108.023 6.71843 109.266 5.7146 111.12 5.7146C114.978 5.7146 115.691 8.22022 115.691 11.479V18.1156Z" fill="white"/>
<path fill-rule="evenodd" clip-rule="evenodd" d="M99.5137 4.36243C98.2897 4.36243 97.3024 3.38468 97.3024 2.18121C97.3024 0.977746 98.2897 0 99.5137 0C100.732 0 101.721 0.977746 101.721 2.18121C101.721 3.38468 100.732 4.36243 99.5137 4.36243Z" fill="white"/>
<path fill-rule="evenodd" clip-rule="evenodd" d="M101.42 18.1156H97.6052V6.01514H101.42V18.1156Z" fill="white"/>
<path fill-rule="evenodd" clip-rule="evenodd" d="M62.1931 3.38958L60.5568 3.39071C59.2736 3.39071 59.0247 4.02539 59.0247 4.95647V7.01097H62.0855L61.6868 10.2296H59.0247V18.4861H55.8336V10.2296H53.165V7.01097H55.8336V4.63857C55.8336 1.88378 57.4493 0.384766 59.8081 0.384766C60.9381 0.384766 61.9095 0.471878 62.1931 0.511475V3.38958Z" fill="white"/>
<path fill-rule="evenodd" clip-rule="evenodd" d="M16.2076 6.90858C16.2144 7.06125 16.2189 7.21391 16.2189 7.36874C16.2189 12.0646 12.4926 17.4804 5.67865 17.4804C3.5864 17.4804 1.63972 16.8925 0 15.8844C0.290026 15.9169 0.584567 15.9332 0.883621 15.9332C2.61927 15.9332 4.2161 15.3658 5.48455 14.4119C3.86288 14.3838 2.49513 13.3563 2.02341 11.9444C2.25024 11.9855 2.48159 12.0072 2.72083 12.0072C3.05825 12.0072 3.38552 11.9639 3.69699 11.8827C2.00197 11.5568 0.72563 10.12 0.72563 8.39842C0.72563 8.38327 0.72563 8.36811 0.72563 8.35295C1.22443 8.6193 1.79658 8.77955 2.40372 8.79795C1.40951 8.16022 0.754971 7.07208 0.754971 5.83993C0.754971 5.18812 0.93779 4.57746 1.25716 4.05233C3.08421 6.20264 5.81407 7.61777 8.89264 7.76611C8.82944 7.50625 8.79671 7.23449 8.79671 6.95622C8.79671 4.99323 10.4556 3.40161 12.5005 3.40161C13.5669 3.40161 14.5295 3.83362 15.2044 4.52441C16.0485 4.36524 16.8418 4.06966 17.5573 3.66255C17.2808 4.49192 16.6929 5.18812 15.9289 5.62879C16.6782 5.54217 17.3914 5.35161 18.0561 5.06902C17.5596 5.78146 16.931 6.40728 16.2076 6.90858V6.90858Z" fill="white"/>
<path fill-rule="evenodd" clip-rule="evenodd" d="M150.721 2.40137C148.473 2.40137 148.191 2.41092 147.308 2.45131C146.427 2.4916 145.825 2.63191 145.298 2.83709C144.754 3.04915 144.292 3.33293 143.832 3.79432C143.372 4.25574 143.089 4.71857 142.877 5.26433C142.672 5.79223 142.532 6.39554 142.492 7.27891C142.452 8.16412 142.442 8.44675 142.442 10.7007C142.442 12.9547 142.452 13.2373 142.492 14.1225C142.532 15.0059 142.672 15.6092 142.877 16.1371C143.089 16.6829 143.372 17.1457 143.832 17.6071C144.292 18.0685 144.754 18.3523 145.298 18.5644C145.825 18.7695 146.427 18.9098 147.308 18.9501C148.191 18.9905 148.473 19.0001 150.721 19.0001C152.969 19.0001 153.251 18.9905 154.134 18.9501C155.015 18.9098 155.617 18.7695 156.144 18.5644C156.688 18.3523 157.15 18.0685 157.61 17.6071C158.07 17.1457 158.354 16.6829 158.565 16.1371C158.77 15.6092 158.91 15.0059 158.95 14.1225C158.99 13.2373 159 12.9547 159 10.7007C159 8.44675 158.99 8.16412 158.95 7.27891C158.91 6.39554 158.77 5.79223 158.565 5.26433C158.354 4.71857 158.07 4.25574 157.61 3.79432C157.15 3.33293 156.688 3.04915 156.144 2.83709C155.617 2.63191 155.015 2.4916 154.134 2.45131C153.251 2.41092 152.969 2.40137 150.721 2.40137ZM150.722 3.8968C152.932 3.8968 153.194 3.90527 154.067 3.9452C154.874 3.9821 155.312 4.1173 155.604 4.23096C155.991 4.38151 156.266 4.56136 156.556 4.85179C156.846 5.1422 157.025 5.41867 157.175 5.80606C157.289 6.09851 157.423 6.53795 157.46 7.34713C157.5 8.22226 157.509 8.48477 157.509 10.7008C157.509 12.9168 157.5 13.1793 157.46 14.0544C157.423 14.8636 157.289 15.3031 157.175 15.5955C157.025 15.9829 156.846 16.2594 156.556 16.5498C156.266 16.8402 155.991 17.02 155.604 17.1706C155.312 17.2843 154.874 17.4195 154.067 17.4564C153.194 17.4963 152.932 17.5048 150.722 17.5048C148.511 17.5048 148.249 17.4963 147.376 17.4564C146.569 17.4195 146.131 17.2843 145.839 17.1706C145.453 17.02 145.177 16.8402 144.887 16.5498C144.597 16.2594 144.418 15.9829 144.268 15.5955C144.155 15.3031 144.02 14.8636 143.983 14.0544C143.943 13.1793 143.935 12.9168 143.935 10.7008C143.935 8.48477 143.943 8.22226 143.983 7.34713C144.02 6.53795 144.155 6.09851 144.268 5.80606C144.418 5.41867 144.597 5.1422 144.887 4.85179C145.177 4.56136 145.453 4.38151 145.839 4.23096C146.131 4.1173 146.569 3.9821 147.376 3.9452C148.249 3.90527 148.511 3.8968 150.722 3.8968Z" fill="white"/>
<path fill-rule="evenodd" clip-rule="evenodd" d="M150.724 13.3925C149.239 13.3925 148.036 12.1862 148.036 10.698C148.036 9.20989 149.239 8.00352 150.724 8.00352C152.208 8.00352 153.412 9.20989 153.412 10.698C153.412 12.1862 152.208 13.3925 150.724 13.3925ZM150.725 6.54712C148.438 6.54712 146.584 8.40556 146.584 10.6981C146.584 12.9906 148.438 14.8491 150.725 14.8491C153.011 14.8491 154.865 12.9906 154.865 10.6981C154.865 8.40556 153.011 6.54712 150.725 6.54712Z" fill="white"/>
<path fill-rule="evenodd" clip-rule="evenodd" d="M156.417 6.54704C156.417 7.12018 155.954 7.58477 155.382 7.58477C154.81 7.58477 154.347 7.12018 154.347 6.54704C154.347 5.9739 154.81 5.50928 155.382 5.50928C155.954 5.50928 156.417 5.9739 156.417 6.54704Z" fill="white"/>
</svg>
